# xmcd CD database file
#
# Track frame offsets:
#	150
#	20006
#	33366
#	46837
#	67647
#	90941
#	99481
#	118278
#	134383
#	149638
#	165419
#
# Disc length: 2429 seconds
#
# Revision: 0
# Processed by: cddbd v1.5.2PL0 Copyright (c) Steve Scherf et al.
# Submitted via: CDex 1.70beta2
#
DISCID=8b097b0b
DTITLE=Mississippi John Hurt - Today!
DYEAR=1966
DGENRE=Blues
TTITLE0=Pay Day
TTITLE1=I'm Satisfied
TTITLE2=Candy Man
TTITLE3=Make Me A Pallet On Your Floor
TTITLE4=Talking Casey
TTITLE5=Corrina, Corrina
TTITLE6=Louis Collins
TTITLE7=Hot Time In The Old Town Tonight
TTITLE8=If You Don't Want Me Baby
TTITLE9=Spike Driver Blues
TTITLE10=Beulah Land
EXTD=YEAR: 1966
EXTT0=
EXTT1=
EXTT2=
EXTT3=
EXTT4=
EXTT5=
EXTT6=
EXTT7=
EXTT8=
EXTT9=
EXTT10=
PLAYORDER=
